<svg width="121" height="117" viewBox="0 0 121 117" fill="none" xmlns="http://www.w3.org/2000/svg">
<path d="M39.1556 33.865C39.1556 37.4242 36.1708 40.3094 32.4889 40.3094C28.807 40.3094 25.8223 37.4242 25.8223 33.865C25.8223 30.3058 28.807 27.4205 32.4889 27.4205C36.1708 27.4205 39.1556 30.3058 39.1556 33.865ZM50.8223 33.865C50.8223 31.1956 53.0608 29.0316 55.8223 29.0316L92.4889 29.0316C95.2504 29.0316 97.4889 31.1956 97.4889 33.865C97.4889 36.5344 95.2504 38.6983 92.4889 38.6983L55.8223 38.6983C53.0608 38.6983 50.8223 36.5344 50.8223 33.865ZM50.8227 58.0317C50.8227 55.3623 53.0612 53.1983 55.8227 53.1983L92.4885 53.1983C95.2499 53.1983 97.4885 55.3623 97.4885 58.0317C97.4885 60.7011 95.2499 62.865 92.4885 62.865L55.8227 62.865C53.0612 62.865 50.8227 60.7011 50.8227 58.0317ZM55.8227 77.365C53.0612 77.365 50.8227 79.529 50.8227 82.1984C50.8227 84.8677 53.0612 87.0317 55.8227 87.0317H92.4885C95.2499 87.0317 97.4885 84.8677 97.4885 82.1984C97.4885 79.529 95.2499 77.365 92.4885 77.365H55.8227ZM32.4889 64.4761C36.1708 64.4761 39.1556 61.5909 39.1556 58.0317C39.1556 54.4725 36.1708 51.5872 32.4889 51.5872C28.807 51.5872 25.8223 54.4725 25.8223 58.0317C25.8223 61.5909 28.807 64.4761 32.4889 64.4761ZM39.1556 82.1984C39.1556 85.7575 36.1708 88.6428 32.4889 88.6428C28.807 88.6428 25.8223 85.7575 25.8223 82.1984C25.8223 78.6392 28.807 75.7539 32.4889 75.7539C36.1708 75.7539 39.1556 78.6392 39.1556 82.1984ZM15.8223 0.0316162C7.538 0.0316162 0.822266 6.52349 0.822266 14.5316L0.822266 101.532C0.822266 109.54 7.53799 116.032 15.8223 116.032L105.822 116.032C114.107 116.032 120.822 109.54 120.822 101.532L120.822 14.5316C120.822 6.5235 114.107 0.0316162 105.822 0.0316162L15.8223 0.0316162ZM10.8223 14.5316C10.8223 11.8623 13.0608 9.69829 15.8223 9.69829L105.822 9.69829C108.584 9.69829 110.822 11.8623 110.822 14.5316L110.822 101.532C110.822 104.201 108.584 106.365 105.822 106.365L15.8223 106.365C13.0608 106.365 10.8223 104.201 10.8223 101.532L10.8223 14.5316Z" fill="#56C3E9"/>
</svg>
